<svg width="134" height="47" viewBox="0 0 134 47" fill="none" xmlns="http://www.w3.org/2000/svg">
<path d="M20.5 12V16.5M20.5 21V16.5M20.5 16.5C20.5 16.5 18.5 16.5 17.5 15C16.5 13.5 14 13.5 14 13.5L12.5 15V18V22.5L14 24H16L18.5 25L20.5 26.5V28.5V31.5L18.5 32.5H16H14C14 32.5 14 32.5 12.5 31.5C11 30.5 11 29.5 11 29.5V26.5V36" stroke="white" stroke-width="22" stroke-linecap="round" stroke-linejoin="round"/>
<path d="M36 18V23.5L34 21.5L32 19.5H29L27 20.5L26 22.5V23.5V27.5V31.5L27 34L29 35H32H34L35.5 33.5L36.5 32V27.5" stroke="white" stroke-width="22" stroke-linecap="round" stroke-linejoin="round"/>
<path d="M40 14.5H42.75M48.5 22L51 20.5L52 18V16L50.5 14.5H42.75M48.5 22H44.5H42.75M48.5 22L51 23V25.5V28.5V31V33L53.5 34.5H55.5L57 33V31M41 22H42.75M42.75 22V14.5M42.75 22V24V33M42.75 22V33M42.75 33H40M42.75 33L44.5 32H46.5" stroke="white" stroke-width="22" stroke-linecap="round" stroke-linejoin="round"/>
<path d="M59 11H65M65 11L71 26.5V28.5M65 11L71.75 27.5M65 11L64 13L63 17.5V20V22.5V25V27.5H60H56M71 28.5L69 29.5M71 28.5L71.75 27.5M75 26.5H74H72.5L71.75 27.5" stroke="white" stroke-width="22" stroke-linecap="round" stroke-linejoin="round"/>
<path d="M63.5 23.5H69.5" stroke="white" stroke-width="22" stroke-linecap="round" stroke-linejoin="round"/>
<path d="M74.5 20.5V14H89V18.5" stroke="white" stroke-width="22" stroke-linecap="round" stroke-linejoin="round"/>
<path d="M82 14.5V32.5M82 32.5H77.5M82 32.5H86" stroke="white" stroke-width="22" stroke-linecap="round" stroke-linejoin="round"/>
<path d="M101.5 16V22L100 19.5L97.5 18H95L93 19.5L92 22V25.5V29.5V31L95 33L97 33.5H100L101.5 32L102.5 29.5V27.5" stroke="white" stroke-width="22" stroke-linecap="round" stroke-linejoin="round"/>
<path d="M106 13.5H109M112 13.5H109M109 13.5V23M109 32.5H106M109 32.5H112M109 32.5V23M109 23H118.5M118.5 23V11M118.5 23V34.5M118.5 11H115M118.5 11H122.5M118.5 34.5L115 35.5M118.5 34.5H122.5" stroke="white" stroke-width="22" stroke-linecap="round" stroke-linejoin="round"/>
<path d="M20.5 12V16.5M20.5 21V16.5M20.5 16.5C20.5 16.5 18.5 16.5 17.5 15C16.5 13.5 14 13.5 14 13.5L12.5 15V18V22.5L14 24H16L18.5 25L20.5 26.5V28.5V31.5L18.5 32.5H16H14C14 32.5 14 32.5 12.5 31.5C11 30.5 11 29.5 11 29.5V26.5V36" stroke="#F9AD40" stroke-width="11" stroke-linecap="round" stroke-linejoin="round"/>
<path d="M36 18V23.5L34 21.5L32 19.5H29L27 20.5L26 22.5V23.5V27.5V31.5L27 34L29 35H32H34L35.5 33.5L36.5 32V27.5" stroke="#F9AD40" stroke-width="11" stroke-linecap="round" stroke-linejoin="round"/>
<path d="M40 14.5H42.75M48.5 22L51 20.5L52 18V16L50.5 14.5H42.75M48.5 22H44.5H42.75M48.5 22L51 23V25.5V28.5V31V33L53.5 34.5H55.5L57 33V31M41 22H42.75M42.75 22V14.5M42.75 22V24V33M42.75 22V33M42.75 33H40M42.75 33L44.5 32H46.5" stroke="#F9AD40" stroke-width="11" stroke-linecap="round" stroke-linejoin="round"/>
<path d="M59 11H65M65 11L71 26.5V28.5M65 11L71.75 27.5M65 11L64 13L63 17.5V20V22.5V25V27.5H60H56M71 28.5L69 29.5M71 28.5L71.75 27.5M75 26.5H74H72.5L71.75 27.5" stroke="#F9AD40" stroke-width="11" stroke-linecap="round" stroke-linejoin="round"/>
<path d="M63.5 23.5H69.5" stroke="#F9AD40" stroke-width="11" stroke-linecap="round" stroke-linejoin="round"/>
<path d="M74.5 20.5V14H89V18.5" stroke="#F9AD40" stroke-width="11" stroke-linecap="round" stroke-linejoin="round"/>
<path d="M82 14.5V32.5M82 32.5H77.5M82 32.5H86" stroke="#F9AD40" stroke-width="11" stroke-linecap="round" stroke-linejoin="round"/>
<path d="M101.5 16V22L100 19.5L97.5 18H95L93 19.5L92 22V25.5V29.5V31L95 33L97 33.5H100L101.5 32L102.5 29.5V27.5" stroke="#F9AD40" stroke-width="11" stroke-linecap="round" stroke-linejoin="round"/>
<path d="M106 13.5H109M112 13.5H109M109 13.5V23M109 32.5H106M109 32.5H112M109 32.5V23M109 23H118.5M118.5 23V11M118.5 23V34.5M118.5 11H115M118.5 11H122.5M118.5 34.5L115 35.5M118.5 34.5H122.5" stroke="#F9AD40" stroke-width="11" stroke-linecap="round" stroke-linejoin="round"/>
<rect x="28" y="22" width="7" height="10" fill="#F9AD40"/>
<rect x="14" y="22" width="7" height="10" fill="#F9AD40"/>
<rect x="45" y="20" width="7" height="10" fill="#F9AD40"/>
<rect x="73" y="19" width="7" height="10" fill="#F9AD40"/>
<rect x="84" y="20" width="7" height="10" fill="#F9AD40"/>
<rect x="95" y="21" width="7" height="10" fill="#F9AD40"/>
<rect x="110" y="16" width="7" height="15" fill="#F9AD40"/>
<rect x="53" y="13" width="7" height="15" fill="#F9AD40"/>
<path d="M20.5 12V16M20.5 21V16M20.5 16C20.5 16 19.5 15 18 14C16.5 13 14 14 14 14L12.5 16V18V22.5L14 24H16L18.5 25L20 26.5L20.5 28.5L20 31L18.5 32.5H16H14C14 32.5 14 32.5 12.5 31.5C11 30.5 11 29.5 11 29.5V28V36" stroke="white" stroke-width="2.75" stroke-linecap="round" stroke-linejoin="round"/>
<path d="M36 18V23.5L34 21.5L32 19.5H29L27 20.5L26 22.5V23.5V27.5V31.5L27 34L29 35H32H34L35.5 33.5L36.5 32V27.5" stroke="white" stroke-width="2.75" stroke-linecap="round" stroke-linejoin="round"/>
<path d="M40 14.5H42.75M48.5 22L51 20.5L52 18V16L50.5 14.5H42.75M48.5 22H44.5H42.75M48.5 22L51 23V25.5V28.5V31V33L53.5 34.5H55.5L57 33V31M41 22H42.75M42.75 22V14.5M42.75 22V24V33M42.75 22V33M42.75 33H40M42.75 33L44.5 32H46.5" stroke="white" stroke-width="2.75" stroke-linecap="round" stroke-linejoin="round"/>
<path d="M59 11H65M65 11L71 26.5V28.5M65 11L71.75 27.5M65 11L64 13L63 17.5V20V22.5V25V27.5H60H56M71 28.5L69 29.5M71 28.5L71.75 27.5M75 26.5H74H72.5L71.75 27.5" stroke="white" stroke-width="2.75" stroke-linecap="round" stroke-linejoin="round"/>
<path d="M63.5 23.5H69.5" stroke="white" stroke-width="2.75" stroke-linecap="round" stroke-linejoin="round"/>
<path d="M74.5 20.5V14H89V18.5" stroke="white" stroke-width="2.75" stroke-linecap="round" stroke-linejoin="round"/>
<path d="M82 14.5V32.5M82 32.5H77.5M82 32.5H86" stroke="white" stroke-width="2.75" stroke-linecap="round" stroke-linejoin="round"/>
<path d="M101.5 16V22L100 19.5L97.5 18H95L93 19.5L92 22V25.5V29.5V31L95 33L97 33.5H100L101.5 32L102.5 29.5V27.5" stroke="white" stroke-width="2.75" stroke-linecap="round" stroke-linejoin="round"/>
<path d="M106 13.5H109M112 13.5H109M109 13.5V23M109 32.5H106M109 32.5H112M109 32.5V23M109 23H118.5M118.5 23V11M118.5 23V34.5M118.5 11H115M118.5 11H122.5M118.5 34.5L115 35.5M118.5 34.5H122.5" stroke="white" stroke-width="2.75" stroke-linecap="round" stroke-linejoin="round"/>
</svg>
